# xmcd
#
# Track frame offsets:
#	150
#	18803
#	35904
#	61988
#	80280
#	104927
#	124702
#	147229
#	170204
#
# Disc length: 2575 seconds
#
# Revision: 1
# Processed by: cddbd v1.5.2PL0 Copyright (c) Steve Scherf et al.
# Submitted via: audiograbber 1.83.01
#
DISCID=7f0a0d09
DTITLE=Leslie Blackshear Smith - How Love Works Pt 1
DYEAR=2015
DGENRE=Funk
TTITLE0=How Love Works
TTITLE1=Quit You
TTITLE2=Everybody Stumbles
TTITLE3=Redemption
TTITLE4=What Kind of World
TTITLE5=Love Walks With Me
TTITLE6=Word To The Wise
TTITLE7=Don't Talk To Me
TTITLE8=I Got You, Baby
EXTD=
EXTT0=
EXTT1=
EXTT2=
EXTT3=
EXTT4=
EXTT5=
EXTT6=
EXTT7=
EXTT8=
PLAYORDER=
